<svg xmlns="http://www.w3.org/2000/svg" width="50" height="40" viewBox="0 0 50 40">
  <path fill="#FFFFFF" fill-rule="evenodd" d="M128.879385,65.0475467 C130.378638,64.5696775 132.627517,64.3785298 135.518934,59.4086898 C138.41035,54.4388498 144.193184,42.8744144 145.049899,43.3522837 C145.585348,43.6390052 143.979004,48.130976 143.979004,50.0424529 C143.979004,51.9539298 143.979004,53.9999998 145.264079,57.0193443 C146.549154,60.0386888 144.835721,59.9821335 143.764825,59.9821329 C142.69393,59.9821323 142.372662,58.4529513 142.372662,57.4972129 C141.301767,57.4972129 139.588335,57.1149175 137.339455,60.3644283 C135.090576,63.613939 133.484233,66.2900067 130.592817,66.9590237 C127.7014,67.6280406 127.380132,65.525416 128.879385,65.0475467 Z M141.730125,52.1450775 C141.248589,52.1450775 140.619694,53.7678887 140.766319,54.2477021 C140.912945,54.7275155 142.265572,54.6299975 142.479751,54.2477021 C142.69393,53.8654067 142.051393,52.1450775 141.730125,52.1450775 Z M148.048405,55.3945883 C148.048405,55.3945883 146.120794,54.7255713 147.405868,51.9539298 C148.690942,49.1822883 149.654748,46.1239252 149.654748,43.8301529 C149.654748,41.5363806 150.725643,41.5363806 151.046911,41.6319544 C151.36818,41.7275283 152.439075,43.161136 152.546164,44.4991698 C152.653254,45.8372037 153.081612,46.3150729 153.724149,46.219499 C154.366686,46.1239252 154.473775,45.4549083 155.223402,42.9699883 C155.973029,40.4850683 156.080118,40.3894944 156.829745,40.3894944 C157.579371,40.3894944 158.007729,41.0585113 157.79355,42.0142498 C157.579371,42.9699883 155.75885,50.8070437 153.40288,50.8070437 C152.546164,50.8070437 152.331985,50.3291744 152.117806,49.6601575 C151.903627,48.9911406 151.475269,48.130976 151.046911,48.130976 C150.190195,52.1450775 148.048405,55.3945883 148.048405,55.3945883 Z M160.899146,40.676216 C160.256609,42.5876928 157.90064,48.7999928 159.721161,50.0424528 C161.970041,48.6088452 165.611084,46.6017944 166.36071,45.4549082 C167.110336,44.3080221 169.573395,41.3452329 167.324516,38.8603129 C165.075636,36.3753929 161.541683,38.7647391 160.899146,40.676216 Z M163.040936,41.0585113 C162.612578,42.1098237 161.862951,43.9257267 161.862951,44.7858913 C161.862951,45.646056 162.612578,46.0283512 163.469294,45.3593344 C164.32601,44.6903176 166.681979,42.3009713 165.932352,40.676216 C165.182726,39.0514606 163.469294,40.007199 163.040936,41.0585113 Z M137.018187,63.9006606 C136.161471,65.3342684 135.840202,67.0545975 134.983486,70.0173867 C134.12677,72.980176 133.270054,74.7960785 134.555128,74.9872267 C135.840202,75.178375 136.054381,73.1713237 136.589829,72.5023067 C137.125276,71.8332898 137.553634,71.3554206 138.624529,72.0244375 C139.695424,72.6934544 140.980498,73.7447667 141.944304,73.4580452 C142.90811,73.1713237 142.80102,72.1200113 141.944304,71.2598467 C141.087588,70.3996821 140.016693,69.9218129 140.016693,69.0616483 C140.016693,68.2014837 142.58684,67.150171 142.801019,65.7165635 C143.015198,64.282956 142.158482,62.371479 140.55214,62.1803313 C139.05651,62.0023579 137.874903,62.4670529 137.018187,63.9006606 Z M138.624529,65.7165637 C138.41035,65.1431206 138.731619,64.3785298 139.588335,64.3785298 C140.445051,64.3785298 140.488875,65.2883926 140.230872,65.6209898 C139.972868,65.953587 138.838708,66.2900067 138.624529,65.7165637 Z M153.831238,57.4972129 C153.831238,57.4972129 152.867433,56.159179 151.26109,56.159179 C149.654748,56.159179 148.476763,56.828196 148.262584,57.8795083 C148.048405,58.9308206 147.405868,61.8936098 147.405868,64.9519729 C147.405868,68.010336 147.298779,68.4882052 148.476763,68.4882052 C149.654748,68.4882052 151.154001,67.6280406 152.546165,66.2900067 C153.938328,64.9519729 153.188702,64.282956 152.439075,64.282956 C151.689449,64.282956 151.47527,64.6652513 150.832733,64.6652513 C150.190196,64.6652513 149.333479,63.5183652 150.190195,62.8493483 C151.046912,62.1803313 152.117807,61.7024621 153.188702,61.0334452 C154.259597,60.3644283 155.865939,59.2175421 155.437581,58.5485252 C155.009223,57.8795083 153.831238,58.4529513 152.974522,58.9308206 C152.117807,59.4086898 150.832733,60.2688544 150.297285,59.2175421 C149.761837,58.1662298 153.831238,57.4972129 153.831238,57.4972129 Z M158.650266,53.3875375 C158.650266,53.3875375 157.686461,57.1149175 157.472282,58.7396729 C157.258103,60.3644283 156.829745,62.4670529 158.114819,62.4670529 C159.399893,62.4670529 160.149519,61.2245929 161.648772,58.9308206 C163.148025,56.6370483 163.897652,55.6813098 163.897652,55.6813098 C163.897652,55.6813098 165.289816,57.0193437 165.289816,58.2618037 C165.289816,59.5042637 164.647279,60.7467237 164.861457,61.2245929 C165.075636,61.7024621 165.932352,61.9891837 166.681979,61.4157406 C167.431606,60.8422975 167.859963,59.5042637 168.716679,57.5927867 C169.573396,55.6813098 177.498019,37.7134267 177.819287,36.948836 C178.140555,36.1842452 178.033465,34.7506375 177.498018,35.037359 C176.962571,35.3240806 176.748392,35.8019498 176.427123,36.5665406 C176.105854,37.3311313 171.179737,47.0796637 170.323022,49.373436 C169.466306,51.6672083 168.288322,55.299013 167.324516,55.2990137 C166.36071,55.2990144 166.253621,51.3804867 166.253621,50.615896 C166.25362,49.8513052 165.611084,49.7557313 164.754368,50.4247483 C163.897652,51.0937652 160.470788,57.401639 160.470788,57.401639 C160.470788,57.401639 159.506982,57.6883606 159.721161,56.3503267 C160.470788,52.8140944 158.650266,53.3875375 158.650266,53.3875375 Z" transform="translate(-128 -35)"/>
</svg>
