<svg xmlns="http://www.w3.org/2000/svg" width="16" height="16" viewBox="0 0 16 16">
  <path fill="#000000" fill-rule="evenodd" d="M30.1005128,27.4358974 C30.2644103,28.1005128 30.5351795,28.72 30.8921026,29.2779487 L29.8953846,30.2787692 C29.4477949,30.7259487 29.4523077,30.9926154 29.8461538,31.3864615 L30.8184615,32.3589744 C31.2162051,32.7571282 31.4871795,32.7487179 31.9261538,32.3097436 L32.9723077,31.2596923 C33.4646154,31.5425641 33.9979487,31.76 34.5641026,31.8994872 L34.5641026,33.1794872 C34.5641026,33.8153846 34.7567179,34 35.3109744,34 L36.6892308,34 C37.2512821,34 37.4358974,33.8028718 37.4358974,33.1794872 L37.4358974,31.8994872 C38.0020513,31.76 38.5351795,31.5425641 39.0276923,31.2596923 L40.0986667,32.3341538 C40.5417436,32.7733333 40.8082051,32.7817436 41.2059487,32.3878974 L42.1827692,31.4110769 C42.5721026,31.0217436 42.5805128,30.7548718 42.1290256,30.3037949 L41.1033846,29.2781538 C41.4648205,28.72 41.7355897,28.1007179 41.8994872,27.4361026 L43.2533333,27.4361026 C43.8153846,27.4358974 44,27.2387692 44,26.6153846 L44,25.3846154 C44,24.7772308 43.8397949,24.5641026 43.2531282,24.5641026 L41.8992821,24.5641026 C41.7597949,23.9979487 41.542359,23.4648205 41.2594872,22.9723077 L42.2358974,22 C42.6666667,21.5692308 42.7033846,21.3025641 42.2892308,20.8923077 L41.3128205,19.9158974 C40.9230769,19.5261538 40.6441026,19.5304615 40.2051282,19.9692308 L39.2779487,20.8923077 C38.7197949,20.5353846 38.1005128,20.2644103 37.4358974,20.1007179 L37.4358974,18.8205128 C37.4358974,18.2131282 37.2756923,18 36.6890256,18 L35.3107692,18 C34.7567179,18 34.5641026,18.2010256 34.5641026,18.8205128 L34.5641026,20.1005128 C33.8994872,20.2644103 33.28,20.5351795 32.7220513,20.8921026 L31.7948718,19.9690256 C31.3556923,19.5302564 31.0769231,19.5259487 30.6871795,19.9156923 L29.7107692,20.8921026 C29.2964103,21.302359 29.3333333,21.5692308 29.7641026,21.9997949 L30.7364103,22.9721026 C30.457641,23.4644103 30.24,23.9977436 30.1005128,24.5638974 L28.7466667,24.5638974 C28.1926154,24.5641026 28,24.7651282 28,25.3846154 L28,26.6153846 C28,27.2512821 28.1926154,27.4358974 28.7468718,27.4358974 L30.1005128,27.4358974 Z M33.6531282,26 C33.6531282,24.7035897 34.7035897,23.6535385 36,23.6535385 C37.2964103,23.6535385 38.3464615,24.7035897 38.3464615,26 C38.3464615,27.2964103 37.2964103,28.3468718 36,28.3468718 C34.7035897,28.3468718 33.6531282,27.2964103 33.6531282,26 Z" transform="translate(-28 -18)" opacity=".5"/>
</svg>
